<?xml version="1.0" encoding="utf-8"?>
<!-- Generator: Adobe Illustrator 14.0.0, SVG Export Plug-In . SVG Version: 6.00 Build 43363)  -->
<!DOCTYPE svg PUBLIC "-//W3C//DTD SVG 1.1//EN" "http://www.w3.org/Graphics/SVG/1.1/DTD/svg11.dtd">
<svg version="1.1" id="Layer_1" xmlns="http://www.w3.org/2000/svg" xmlns:xlink="http://www.w3.org/1999/xlink" x="0px" y="0px"
	 width="100px" height="100px" viewBox="0 0 100 100" enable-background="new 0 0 100 100" xml:space="preserve">
<g display="none">
	<path display="inline" fill="#E3F1FC" d="M12.553,26.975v65.303h18.593h37.815h18.592V26.975l-37.5-19.5L12.553,26.975z
		 M36.23,87.746V51.577h27.647v36.169H36.23z M82.469,87.746H68.962V47.045H31.146v40.701H17.639V29.578l32.415-16.855
		l32.415,16.855V87.746z"/>
</g>
<g>
	<path fill="#E3F1FC" d="M50.054,2.813c-25.95,0-47.063,21.112-47.063,47.063c0,25.952,21.113,47.063,47.063,47.063
		c25.95,0,47.062-21.111,47.062-47.063C97.116,23.925,76.004,2.813,50.054,2.813z M50.054,92.514
		c-23.511,0-42.639-19.124-42.639-42.638c0-23.511,19.128-42.638,42.639-42.638c23.51,0,42.636,19.126,42.636,42.638
		C92.69,73.39,73.564,92.514,50.054,92.514z"/>
	<path fill="#E3F1FC" d="M41.659,24.735L14.68,40.312l5.306,3.064l-5.306,3.063l5.388,3.11l-5.388,3.11l43.768,25.271l26.979-15.576
		l-5.389-3.113l5.389-3.11l-5.306-3.062l5.306-3.063L41.659,24.735z M62.286,60.813c-2.611-1.115-5.935-1.262-8.308-0.366
		L22.651,42.359c2.061-1.449,2.481-3.348,1.156-4.762l14.511-8.379c2.32,0.825,5.055,0.939,7.19,0.293l30.706,17.729
		c-1.479,1.437-1.109,3.452,0.977,4.965L62.286,60.813z M81.001,62.354L58.448,75.375L19.104,52.659l3.177-1.833l36.167,20.883
		l19.378-11.188L81.001,62.354z M81.001,56.131L58.448,69.154L19.104,46.438l3.094-1.786l36.25,20.929l19.459-11.235L81.001,56.131z
		"/>
	<path fill="#E3F1FC" d="M57.664,39.848l-1.374,0.793c-0.981-0.567-2.13-0.856-3.439-0.868c-1.416-0.012-2.713,0.324-3.891,1.003
		c-0.819,0.475-1.307,0.975-1.461,1.499c-0.155,0.596,0.184,1.36,1.014,2.295l0.331,0.371l-3.706,2.139
		c-0.381-0.373-0.518-0.759-0.408-1.157c0.111-0.4,0.476-0.778,1.095-1.137l-2.177-1.256c-1.294,0.905-1.995,1.76-2.098,2.567
		c-0.106,0.806,0.402,1.531,1.52,2.178l-1.492,0.861l0.907,0.524l1.493-0.863c0.921,0.534,1.957,0.842,3.104,0.931
		c0.93,0.074,1.834,0,2.712-0.219c0.702-0.167,1.274-0.381,1.72-0.638c0.897-0.52,1.474-1.008,1.724-1.467
		c0.431-0.781,0.199-1.67-0.688-2.666l-0.549-0.572l3.128-1.807c0.341,0.195,0.464,0.464,0.373,0.805s-0.356,0.639-0.803,0.896
		l2.176,1.256c1.16-0.669,1.721-1.394,1.68-2.175c-0.013-0.682-0.466-1.341-1.356-1.978l1.372-0.793L57.664,39.848z M49.441,47.554
		c-0.54,0.311-1.151,0.455-1.826,0.426c-0.347-0.018-0.639-0.05-0.875-0.097c-0.167-0.036-0.286-0.069-0.359-0.1
		c-0.071-0.032-0.185-0.092-0.336-0.18l3.403-1.964c0.422,0.514,0.642,0.894,0.661,1.136C50.109,47.037,49.887,47.296,49.441,47.554
		z M51.355,43.491c-0.374-0.376-0.562-0.683-0.566-0.917c0.032-0.255,0.227-0.483,0.583-0.691c0.488-0.283,0.995-0.411,1.519-0.393
		c0.525,0.021,0.967,0.136,1.332,0.344L51.355,43.491z"/>
</g>
<g display="none">
	<path display="inline" fill="#E3F1FC" d="M68.827,14.418l-2.662-8.175L30.169,25.589L9.745,74.979L58.077,93.51l2.569-6.218
		l17.729,3.719l11.986-48.925L75.61,8.727L68.827,14.418z M15.504,72.59l18.2-44.009l29.862-16.049l10.228,31.423L55.597,87.964
		L15.504,72.59z M75.063,85.943l-12.361-2.592L78.867,44.26l-8.34-25.609l3.393-2.844l11.789,26.664L75.063,85.943z"/>
	<path display="inline" fill="#E3F1FC" d="M57.668,21.24c-3.18,0-5.733,2.398-5.819,5.457c-0.083,3.091,2.46,5.673,5.667,5.755
		h0.153c3.178,0,5.735-2.398,5.815-5.457c0.043-1.498-0.522-2.917-1.593-4.005C60.822,21.903,59.376,21.282,57.668,21.24z
		 M57.669,30.309L57.669,30.309v0.007V30.309z"/>
</g>
<path display="none" fill="#E3F1FC" d="M66.946,19.953c-6.22,0-12.008,1.752-16.893,4.734c-4.883-2.982-10.672-4.734-16.893-4.734
	c-17.324,0-31.417,13.422-31.417,29.922c0,16.502,14.093,29.926,31.417,29.926c6.221,0,12.01-1.754,16.893-4.734
	c4.885,2.98,10.673,4.734,16.893,4.734c17.324,0,31.417-13.424,31.417-29.926C98.363,33.375,84.271,19.953,66.946,19.953z
	 M33.161,75.896c-15.171,0-27.513-11.672-27.513-26.021c0-14.347,12.342-26.02,27.513-26.02c4.86,0,9.42,1.208,13.387,3.307
	c-6.73,5.494-11.018,13.629-11.018,22.712c0,9.086,4.287,17.223,11.018,22.715C42.581,74.689,38.021,75.896,33.161,75.896z
	 M60.676,49.875c0,8.324-4.173,15.73-10.622,20.496c-6.451-4.766-10.621-12.172-10.621-20.496c0-8.322,4.17-15.728,10.621-20.494
	C56.503,34.147,60.676,41.553,60.676,49.875z M66.946,75.896c-4.858,0-9.419-1.209-13.386-3.309
	c6.729-5.49,11.017-13.627,11.017-22.713c0-9.083-4.287-17.219-11.017-22.711c3.967-2.099,8.527-3.308,13.386-3.308
	c15.172,0,27.514,11.672,27.514,26.02C94.46,64.225,82.118,75.896,66.946,75.896z"/>
<path display="none" fill="#E3F1FC" d="M8.744,93.778h4.6c5.15-18.421,19.914-31.527,36.71-31.527
	c16.795,0,31.56,13.106,36.709,31.527h4.6C87.06,76.98,75.4,64.002,61.056,59.522c5.248-2.752,9.363-7.406,11.48-13.061l4.98-2.451
	V33.009l-0.05-0.028c-0.508-8.61-6.03-27.006-27.413-27.006c-21.366,0-27.362,18.877-27.42,19.068l-0.096,17.752l4.2,3.718
	l0.607-0.686c2.039,5.941,6.263,10.839,11.706,13.695C24.707,64.002,13.047,76.98,8.744,93.778z M26.981,30.922v-4.866
	c0.77-2.134,6.309-15.639,23.073-15.639c14.693,0,20.437,10.42,22.275,18.18c-3.594-8.914-12.219-15.216-22.275-15.216
	C39.143,13.381,29.921,20.798,26.981,30.922z M30.433,37.817c0-11.025,8.803-19.993,19.622-19.993
	c10.82,0,19.623,8.968,19.623,19.993c0,1.899-0.277,3.735-0.768,5.479l-11.623,5.718h-7.232v4.444h8.265l7.391-3.636
	c-3.586,4.839-9.26,7.988-15.656,7.988C39.235,57.81,30.433,48.84,30.433,37.817z"/>
</svg>
