<?xml version="1.0" encoding="utf-8"?>
<!-- Generator: Adobe Illustrator 14.0.0, SVG Export Plug-In . SVG Version: 6.00 Build 43363)  -->
<!DOCTYPE svg PUBLIC "-//W3C//DTD SVG 1.1//EN" "http://www.w3.org/Graphics/SVG/1.1/DTD/svg11.dtd">
<svg version="1.1" id="Layer_1" xmlns="http://www.w3.org/2000/svg" xmlns:xlink="http://www.w3.org/1999/xlink" x="0px" y="0px"
	 width="100px" height="100px" viewBox="0 0 100 100" enable-background="new 0 0 100 100" xml:space="preserve">
<g display="none">
	<path display="inline" fill="#E3F1FC" d="M18.886,29.141v60.805h15.426H65.69h15.424V29.141L50,10.984L18.886,29.141z
		 M38.531,85.725V52.047h22.94v33.678H38.531z M76.896,85.725H65.69V47.829H34.312v37.896H23.105V31.563L50,15.87l26.896,15.694
		V85.725z"/>
</g>
<g display="none">
	<path display="inline" fill="#E3F1FC" d="M85.388,57.897c2.068-3.065,3.312-6.87,3.312-11.005c0-10.075-7.302-18.274-16.279-18.274
		c-8.977,0-16.278,8.199-16.278,18.274c0,1.712,0.226,3.367,0.62,4.942c-1.656-1.376-3.458-2.604-5.391-3.657
		c2.908-4.037,4.66-9.172,4.66-14.765c0-12.939-9.345-23.466-20.83-23.466c-11.488,0-20.832,10.526-20.832,23.466
		c0,5.592,1.751,10.73,4.661,14.767C8.43,53.946,1.714,64.98,1.714,77.008c0,4.38,0.868,8.65,2.579,12.689l0.545,1.285h56.397h4.327
		h30.183l0.545-1.285c1.324-3.119,1.996-6.421,1.996-9.808C98.286,70.78,93.294,62.42,85.388,57.897z M72.42,32.836
		c6.65,0,12.061,6.306,12.061,14.056c0,4.125-1.543,7.83-3.979,10.405c-0.222,0.235-0.447,0.461-0.682,0.674
		c-0.068,0.062-0.139,0.12-0.207,0.182c-0.233,0.201-0.469,0.395-0.711,0.576c-0.085,0.064-0.172,0.123-0.261,0.187
		c-0.232,0.164-0.467,0.319-0.708,0.466c-0.108,0.066-0.219,0.125-0.329,0.187c-0.226,0.125-0.453,0.253-0.687,0.36
		c-0.138,0.064-0.274,0.115-0.413,0.177c-0.215,0.091-0.431,0.182-0.651,0.26c-0.171,0.06-0.345,0.104-0.518,0.155
		c-0.195,0.056-0.389,0.12-0.589,0.164c-0.226,0.052-0.456,0.083-0.686,0.123c-0.153,0.024-0.304,0.056-0.457,0.075
		c-0.39,0.045-0.782,0.071-1.183,0.071c-0.021,0-0.046-0.007-0.07-0.007c-0.371,0-0.736-0.022-1.099-0.062
		c-0.204-0.027-0.405-0.066-0.606-0.104c-0.175-0.029-0.352-0.054-0.524-0.093c-0.255-0.059-0.503-0.135-0.753-0.211
		c-0.112-0.034-0.228-0.063-0.339-0.101c-0.282-0.098-0.557-0.213-0.831-0.334c-0.074-0.031-0.147-0.059-0.219-0.093
		c-0.302-0.138-0.596-0.294-0.885-0.461c-0.04-0.024-0.08-0.044-0.12-0.068c-0.314-0.187-0.623-0.391-0.923-0.608
		c-0.01-0.01-0.021-0.018-0.031-0.024c-0.633-0.467-1.232-1.001-1.791-1.606l-0.388-0.422c-2.15-2.541-3.482-6.027-3.482-9.868
		C60.359,39.142,65.77,32.836,72.42,32.836z M35.201,14.165c9.159,0,16.611,8.636,16.611,19.248c0,5.281-1.847,10.07-4.829,13.553
		l-0.33,0.353c-0.06,0.069-0.123,0.13-0.184,0.194c-0.357,0.385-0.728,0.75-1.107,1.094c-0.043,0.039-0.087,0.071-0.129,0.113
		c-0.368,0.324-0.744,0.63-1.129,0.917c-0.072,0.051-0.147,0.101-0.221,0.152c-0.36,0.26-0.731,0.508-1.107,0.733
		c-0.109,0.066-0.222,0.125-0.333,0.187c-0.351,0.201-0.703,0.387-1.064,0.559c-0.151,0.068-0.305,0.13-0.458,0.193
		c-0.332,0.143-0.665,0.282-1.003,0.4c-0.202,0.068-0.407,0.12-0.611,0.182c-0.301,0.088-0.603,0.182-0.911,0.254
		c-0.276,0.063-0.558,0.102-0.84,0.148c-0.244,0.041-0.485,0.093-0.733,0.122c-0.533,0.06-1.074,0.096-1.621,0.096
		c-0.549,0-1.089-0.036-1.625-0.096c-0.239-0.029-0.476-0.079-0.715-0.12C32.575,52.4,32.285,52.359,32,52.295
		c-0.299-0.068-0.591-0.159-0.885-0.248c-0.212-0.061-0.427-0.117-0.635-0.188c-0.329-0.115-0.648-0.247-0.971-0.385
		c-0.166-0.071-0.333-0.132-0.496-0.211c-0.346-0.162-0.684-0.343-1.018-0.532c-0.129-0.074-0.257-0.142-0.385-0.216
		c-0.358-0.213-0.706-0.449-1.051-0.694c-0.094-0.066-0.19-0.13-0.282-0.196c-0.363-0.272-0.717-0.564-1.065-0.869
		c-0.064-0.056-0.13-0.11-0.194-0.167c-0.358-0.326-0.705-0.667-1.042-1.028c-0.11-0.118-0.226-0.23-0.333-0.351l-0.211-0.228
		c-2.991-3.485-4.842-8.28-4.842-13.57C18.589,22.801,26.041,14.165,35.201,14.165z M7.667,86.762
		c-1.153-3.127-1.735-6.403-1.735-9.754c0-10.786,6.212-20.67,15.947-25.571c0.005,0.011,0.012,0.013,0.017,0.015
		c0.201,0.189,0.415,0.358,0.623,0.535c0.303,0.265,0.604,0.535,0.919,0.777c0.21,0.162,0.429,0.307,0.645,0.459
		c0.329,0.237,0.659,0.474,0.999,0.687c0.221,0.141,0.449,0.266,0.674,0.396c0.348,0.201,0.7,0.395,1.057,0.573
		c0.234,0.118,0.471,0.224,0.71,0.331c0.363,0.165,0.732,0.316,1.105,0.457c0.243,0.09,0.488,0.179,0.737,0.262
		c0.384,0.125,0.769,0.233,1.159,0.336c0.248,0.062,0.491,0.13,0.741,0.185c0.429,0.093,0.861,0.161,1.294,0.223
		c0.218,0.032,0.433,0.071,0.652,0.096c0.659,0.071,1.321,0.115,1.99,0.115c0.667,0,1.329-0.044,1.987-0.115
		c0.221-0.024,0.434-0.063,0.652-0.096c0.434-0.062,0.868-0.13,1.296-0.223c0.248-0.055,0.492-0.123,0.737-0.185
		c0.391-0.103,0.78-0.211,1.164-0.338c0.247-0.081,0.492-0.17,0.734-0.26c0.375-0.141,0.743-0.295,1.107-0.457
		c0.238-0.107,0.475-0.216,0.708-0.331c0.358-0.176,0.707-0.372,1.057-0.571c0.225-0.132,0.455-0.257,0.679-0.397
		c0.334-0.211,0.658-0.444,0.981-0.675c0.221-0.159,0.446-0.307,0.665-0.476c0.295-0.23,0.579-0.481,0.866-0.729
		c0.226-0.196,0.458-0.38,0.677-0.583c0.004-0.006,0.007-0.008,0.011-0.011c9.732,4.898,15.946,14.782,15.946,25.571
		c0,3.353-0.584,6.629-1.735,9.754H7.667z M92.904,86.762H67.447c0.993-3.149,1.496-6.418,1.496-9.754
		c0-4.618-0.971-9.113-2.845-13.271c0.138,0.065,0.282,0.11,0.422,0.171c0.355,0.157,0.711,0.314,1.08,0.444
		c0.178,0.062,0.36,0.104,0.54,0.157c0.34,0.103,0.678,0.213,1.026,0.292c0.202,0.046,0.409,0.068,0.613,0.107
		c0.332,0.059,0.659,0.13,0.998,0.169c0.421,0.047,0.846,0.062,1.275,0.071c0.122,0.003,0.242,0.02,0.366,0.02
		c0.001,0,0.001,0,0.004,0c0,0,0,0,0.001,0c0.519,0,1.031-0.031,1.544-0.088c0.153-0.018,0.306-0.042,0.459-0.063
		c0.355-0.05,0.711-0.108,1.064-0.182c0.167-0.039,0.333-0.081,0.5-0.123c0.339-0.086,0.674-0.182,1.003-0.289
		c0.155-0.054,0.31-0.104,0.461-0.159c0.352-0.128,0.697-0.272,1.039-0.427c0.12-0.057,0.241-0.105,0.361-0.162
		c0.412-0.201,0.816-0.42,1.212-0.657c0.042-0.024,0.084-0.047,0.125-0.071c0.84-0.515,1.644-1.108,2.4-1.79
		c7.014,3.671,11.473,10.877,11.473,18.732C94.066,82.249,93.677,84.552,92.904,86.762z"/>
</g>
<g display="none">
	<path display="inline" fill="#E3F1FC" d="M50,2.879c-26.238,0-47.584,21.346-47.584,47.584S23.762,98.05,50,98.05
		c26.237,0,47.585-21.348,47.585-47.586S76.237,2.879,50,2.879z M50,93.576c-23.772,0-43.111-19.339-43.111-43.112
		c0-23.772,19.339-43.11,43.111-43.11c23.771,0,43.111,19.338,43.111,43.11C93.111,74.237,73.771,93.576,50,93.576z"/>
	<path display="inline" fill="#E3F1FC" d="M41.512,25.044l-27.279,15.75l5.365,3.096l-5.365,3.098l5.448,3.145l-5.448,3.145
		l44.254,25.552l27.278-15.748l-5.447-3.146l5.447-3.146L80.4,53.692l5.365-3.098L41.512,25.044z M62.369,61.521
		c-2.641-1.129-6.001-1.275-8.401-0.368l-31.674-18.29c2.084-1.464,2.508-3.383,1.167-4.814l14.672-8.472
		c2.346,0.834,5.111,0.949,7.27,0.296l31.048,17.926c-1.497,1.453-1.124,3.49,0.986,5.02L62.369,61.521z M81.292,63.081
		L58.487,76.246l-39.78-22.969l3.212-1.854l36.568,21.114l19.594-11.312L81.292,63.081z M81.292,56.788L58.487,69.955l-39.78-22.967
		l3.128-1.806l36.652,21.161l19.677-11.36L81.292,56.788z"/>
	<path display="inline" fill="#E3F1FC" d="M57.695,40.325l-1.39,0.802c-0.993-0.574-2.153-0.866-3.478-0.878
		c-1.432-0.011-2.744,0.329-3.935,1.014c-0.828,0.479-1.321,0.986-1.478,1.516c-0.156,0.603,0.186,1.376,1.025,2.32l0.334,0.375
		l-3.746,2.163c-0.387-0.378-0.525-0.768-0.413-1.171c0.112-0.403,0.48-0.786,1.106-1.149l-2.2-1.271
		c-1.309,0.916-2.017,1.781-2.122,2.596c-0.106,0.814,0.406,1.547,1.537,2.203l-1.508,0.871l0.917,0.53l1.509-0.874
		c0.933,0.54,1.979,0.854,3.139,0.943c0.94,0.073,1.854,0,2.743-0.222c0.709-0.169,1.289-0.385,1.74-0.645
		c0.907-0.526,1.488-1.02,1.744-1.484c0.434-0.79,0.2-1.687-0.697-2.695L51.97,44.69l3.162-1.827c0.344,0.197,0.47,0.47,0.377,0.814
		c-0.091,0.345-0.361,0.646-0.813,0.906l2.201,1.271c1.173-0.676,1.739-1.409,1.699-2.199c-0.013-0.689-0.472-1.356-1.374-1.999
		l1.39-0.803L57.695,40.325z M49.381,48.117c-0.547,0.314-1.164,0.458-1.848,0.43c-0.35-0.018-0.645-0.051-0.884-0.098
		c-0.168-0.036-0.289-0.07-0.363-0.101c-0.073-0.033-0.187-0.094-0.339-0.183l3.44-1.985c0.427,0.52,0.649,0.904,0.668,1.148
		C50.056,47.594,49.831,47.855,49.381,48.117z M51.317,44.007c-0.379-0.38-0.57-0.69-0.574-0.927
		c0.033-0.257,0.229-0.488,0.59-0.698c0.494-0.286,1.006-0.416,1.535-0.397c0.53,0.021,0.979,0.137,1.347,0.348L51.317,44.007z"/>
</g>
<g display="none">
	<path display="inline" fill="#E3F1FC" d="M66.492,15.433l-2.531-8.076L29.715,26.47l-19.43,48.794l45.982,18.309l2.443-6.144
		l16.868,3.674l11.403-48.335L72.946,9.809L66.492,15.433z M15.764,72.904l17.315-43.479l28.41-15.855l9.73,31.044l-17.313,43.48
		L15.764,72.904z M72.425,86.097l-11.76-2.561l15.38-38.621l-7.934-25.301l3.228-2.811l11.216,26.343L72.425,86.097z"/>
	<path display="inline" fill="#E3F1FC" d="M55.877,22.173c-3.024,0-5.455,2.369-5.536,5.391c-0.079,3.053,2.34,5.604,5.391,5.685
		h0.146c3.022,0,5.457-2.369,5.533-5.391c0.04-1.479-0.497-2.882-1.517-3.956C58.877,22.828,57.501,22.214,55.877,22.173z
		 M55.878,31.132L55.878,31.132v0.007V31.132z"/>
</g>
<g>
	<path fill="#E3F1FC" d="M50,8.1C26.64,8.1,7.636,27.105,7.636,50.465C7.636,73.827,26.64,92.829,50,92.829
		c23.36,0,42.365-19.002,42.365-42.364C92.364,27.105,73.359,8.1,50,8.1z M64.54,50.578l-2.575-11.804l8.736-6.288l12.455-0.812
		c2.963,5.207,4.715,11.169,4.925,17.526l-9.854,4.986L64.54,50.578z M65.222,15.509l2.435,13.972l-8.728,6.283H41.752l-9.106-8.976
		l4.188-12.079c4.11-1.521,8.534-2.391,13.166-2.391C55.411,12.318,60.555,13.469,65.222,15.509z M17.544,30.524l11.882-0.986
		l9.11,8.979l-3.089,11.65l-12.725,6.426l-10.785-4.517c-0.022-0.541-0.083-1.066-0.083-1.611
		C11.854,43.149,13.959,36.336,17.544,30.524z M19.834,73.724l4.675-13.31l12.428-6.274l11.109,9.543l-0.147,13.664l-8.295,9.785
		C31.649,84.876,24.763,80.101,19.834,73.724z M63.132,86.231l-11.013-9.086l0.147-13.423l10.999-9.121l13.623,3.593l5.099,12.983
		C77.529,78.04,70.926,83.36,63.132,86.231z"/>
</g>
</svg>
